<?xml version="1.0" standalone="no"?>
<!DOCTYPE svg PUBLIC "-//W3C//DTD SVG 20010904//EN"
 "http://www.w3.org/TR/2001/REC-SVG-20010904/DTD/svg10.dtd">
<svg version="1.0" xmlns="http://www.w3.org/2000/svg"
 width="1081.000000pt" height="945.000000pt" viewBox="0 0 1081.000000 945.000000"
 preserveAspectRatio="xMidYMid meet">

<g transform="translate(0.000000,945.000000) scale(0.100000,-0.100000)"
fill="#000000" stroke="none">
<path d="M6067 8843 c-10 -10 -8 -23 4 -23 5 0 7 5 4 10 -3 6 -2 10 4 10 5 0
11 -6 14 -12 2 -7 8 -10 12 -6 4 4 4 11 0 17 -7 12 -28 14 -38 4z"/>
<path d="M6124 8818 l-29 -33 33 29 c30 28 37 36 29 36 -2 0 -16 -15 -33 -32z"/>
<path d="M5972 8828 c-7 -7 -8 -17 -1 -30 12 -22 67 -25 75 -3 14 34 -46 61
-74 33z m56 -21 c2 -12 -3 -17 -17 -17 -15 0 -21 6 -21 21 0 25 33 22 38 -4z"/>
<path d="M5785 8814 l-20 -16 20 4 c14 2 21 -3 23 -19 4 -24 22 -32 22 -10 0
21 -12 57 -19 57 -3 0 -15 -8 -26 -16z"/>
<path d="M5870 8805 c0 -29 19 -40 56 -31 19 5 24 12 22 28 -2 12 -9 23 -16
26 -9 3 -11 -3 -6 -22 5 -22 3 -26 -15 -26 -16 0 -21 6 -21 25 0 14 -4 25 -10
25 -5 0 -10 -11 -10 -25z"/>
<path d="M6153 8808 c2 -7 12 -13 22 -13 10 0 20 6 23 13 2 6 -1 12 -8 12 -6
0 -8 -4 -5 -10 3 -5 -1 -10 -10 -10 -9 0 -13 5 -10 10 3 6 1 10 -5 10 -7 0
-10 -6 -7 -12z"/>
<path d="M5847 8619 l-138 -121 -187 11 c-280 16 -253 21 -297 -46 -111 -169
-264 -343 -299 -343 -11 0 -86 14 -166 31 -80 17 -158 33 -173 36 -25 5 -37
-3 -85 -49 -32 -30 -94 -83 -140 -118 -66 -50 -80 -65 -71 -76 6 -8 19 -14 28
-14 16 0 112 72 213 161 l57 50 78 -16 c202 -43 287 -53 313 -40 52 27 258
273 306 368 l16 30 220 -6 221 -6 133 126 c74 69 134 130 134 134 0 23 -36 -2
-163 -112z"/>
<path d="M8715 8585 c-115 -57 -208 -104 -205 -104 17 -2 430 194 430 204 0
10 -18 2 -225 -100z"/>
<path d="M9035 8680 c50 -4 187 -13 305 -20 118 -7 219 -15 223 -17 4 -3 -32
-27 -80 -55 -48 -28 -149 -90 -223 -139 -159 -105 -115 -99 -489 -64 -145 14
-278 24 -295 24 -44 -2 53 -13 334 -38 135 -13 259 -25 277 -27 30 -4 33 -9
57 -82 43 -131 126 -470 150 -612 l23 -135 -35 -3 c-49 -5 -767 89 -779 102
-2 2 -15 105 -29 228 -28 260 -49 389 -75 474 -20 65 -49 104 -49 66 0 -11 7
-38 15 -62 20 -58 60 -278 80 -440 19 -157 35 -274 38 -275 2 -2 370 -61 467
-75 123 -19 314 -40 355 -40 43 0 66 11 394 183 89 47 169 91 177 98 29 24 13
134 -56 384 -49 178 -81 266 -138 385 -25 52 -45 98 -44 102 1 4 -13 9 -31 12
-66 10 -505 36 -582 35 l-80 -2 90 -7z m617 -105 c61 -112 218 -665 218 -767
0 -25 -62 -63 -260 -163 -52 -27 -133 -68 -180 -91 -47 -24 -87 -43 -90 -44
-3 0 -6 23 -8 52 -6 113 -99 503 -160 674 l-39 110 161 106 c179 118 291 180
315 176 9 -2 28 -26 43 -53z"/>
<path d="M4110 8636 c0 -43 -1 -45 -32 -49 -32 -4 -32 -4 5 -5 36 -2 37 -3 37
-41 0 -37 -2 -40 -32 -44 l-33 -4 33 -1 c32 -2 33 -3 30 -39 -3 -35 -6 -39
-38 -44 l-35 -6 38 -2 c34 -1 37 -3 37 -30 0 -27 -4 -30 -37 -34 l-38 -4 38
-1 c35 -2 37 -4 37 -36 0 -30 -4 -35 -27 -39 l-28 -4 28 -2 c27 -1 29 -4 31
-58 1 -13 -9 -20 -34 -24 l-35 -6 38 -2 c36 -1 37 -2 37 -40 0 -39 -1 -40 -37
-44 l-38 -4 36 -1 c34 -2 37 -5 43 -39 9 -60 9 -62 -36 -66 l-43 -4 43 -1 c33
-2 42 -6 42 -19 0 -10 3 -28 6 -40 6 -21 3 -22 -67 -26 l-74 -3 72 -2 c68 -2
72 -3 82 -29 l10 -28 -2 30 c-2 30 -2 30 58 33 45 2 62 -1 71 -13 10 -14 12
-13 17 4 4 17 15 21 68 24 l64 4 -68 -1 c-37 -1 -69 4 -72 9 -3 6 -7 5 -11 -2
-4 -9 -28 -13 -70 -13 -44 0 -64 4 -64 13 0 6 -3 22 -6 34 -4 15 -1 22 13 26
16 4 16 5 1 6 -15 1 -18 10 -18 50 0 49 1 50 33 54 32 4 32 4 -5 5 l-37 2 0
84 c0 79 1 85 22 89 l22 4 -22 2 c-21 1 -22 5 -22 99 1 53 -1 103 -3 111 -2 8
8 17 22 22 l25 7 -28 1 c-27 1 -28 3 -27 44 4 85 0 137 -10 137 -5 0 -10 -20
-10 -44z"/>
<path d="M7381 8650 c13 -36 45 -43 35 -7 -3 12 -6 25 -6 30 0 4 -9 7 -19 7
-18 0 -19 -3 -10 -30z"/>
<path d="M5297 8623 c-4 -3 -7 -11 -7 -17 0 -6 5 -4 10 4 9 13 11 13 19 0 11
-16 27 -7 16 9 -7 12 -28 14 -38 4z"/>
<path d="M5354 8598 l-29 -33 33 29 c30 28 37 36 29 36 -2 0 -16 -15 -33 -32z"/>
<path d="M5194 8605 c-9 -22 3 -45 23 -45 13 0 14 3 5 12 -19 19 -14 38 9 38
17 0 20 -5 17 -25 -3 -16 -1 -25 7 -25 18 0 27 30 14 46 -15 19 -68 18 -75 -1z"/>
<path d="M5098 8603 c6 -2 18 -2 25 0 6 3 1 5 -13 5 -14 0 -19 -2 -12 -5z"/>
<path d="M5132 8590 c-15 -24 -16 -40 -2 -40 6 0 10 5 10 12 0 6 7 20 17 30
13 14 13 18 2 18 -8 0 -20 -9 -27 -20z"/>
<path d="M5380 8585 c0 -8 9 -15 19 -15 22 0 37 17 26 28 -4 4 -10 1 -12 -5
-3 -7 -9 -13 -14 -13 -6 0 -7 5 -4 10 3 6 1 10 -4 10 -6 0 -11 -7 -11 -15z"/>
<path d="M8665 8490 c-16 -11 -25 -20 -20 -20 10 0 64 39 55 40 -3 0 -18 -9
-35 -20z"/>
<path d="M7730 8438 c-25 -23 -117 -105 -205 -181 -88 -77 -194 -170 -235
-208 -41 -37 -86 -77 -100 -89 -14 -12 -36 -31 -50 -43 -22 -19 -104 -35 -599
-117 -315 -52 -580 -99 -587 -105 -14 -11 -37 -166 -26 -177 4 -3 230 32 502
78 272 46 502 84 510 84 10 0 77 -137 205 -421 105 -232 190 -426 190 -433 0
-41 -476 -46 -660 -6 -407 87 -732 312 -862 596 -28 62 -36 66 -24 11 5 -20 5
-35 1 -32 -11 7 -9 -346 2 -368 5 -10 7 -21 5 -23 -15 -15 -213 -34 -352 -33
-162 0 -280 14 -345 41 l-35 15 -44 264 c-24 145 -46 297 -49 337 l-5 73 27
-11 c15 -5 81 -14 147 -19 195 -14 520 11 693 55 48 12 61 13 67 2 4 -7 11 -9
15 -6 8 9 -23 41 -34 34 -21 -13 -232 -49 -362 -62 -229 -22 -463 -14 -522 17
-51 28 19 66 177 98 174 35 294 45 520 45 121 0 209 3 195 7 -39 11 -385 10
-485 -1 -219 -25 -383 -63 -439 -103 l-28 -20 5 -101 c7 -141 86 -607 105
-623 77 -62 466 -83 728 -38 28 5 33 1 63 -46 17 -28 30 -53 28 -55 -4 -4
-407 -43 -817 -78 -212 -19 -351 -31 -575 -51 -93 -8 -307 -26 -475 -40 -168
-13 -333 -27 -367 -31 -44 -5 -63 -3 -63 4 0 21 40 35 68 23 24 -10 48 -3 187
53 158 63 162 64 285 71 234 13 495 63 563 108 30 19 33 36 47 224 13 173 3
295 -27 324 -31 31 -147 42 -348 35 -99 -3 -227 -13 -284 -21 -115 -17 -120
-15 -121 40 -1 17 -7 58 -13 91 l-12 62 -195 -73 c-107 -40 -203 -76 -212 -80
-11 -4 -18 -3 -18 5 0 15 -161 252 -167 246 -3 -2 3 -15 11 -29 9 -13 14 -31
10 -40 -5 -15 -124 -67 -152 -67 -7 0 -10 -5 -6 -12 4 -7 3 -8 -5 -4 -13 8
-131 -34 -131 -47 0 -5 -4 -6 -9 -3 -14 9 -72 -15 -65 -26 4 -6 -1 -8 -12 -4
-11 3 -25 2 -33 -3 -11 -7 -27 12 -70 80 -56 91 -112 165 -92 122 9 -18 5 -90
-5 -80 -6 6 -104 384 -104 401 0 36 258 198 352 221 18 5 52 -4 111 -28 199
-81 317 -204 334 -347 6 -52 9 -56 32 -41 19 12 8 81 -23 146 -67 143 -241
252 -495 311 -85 20 -143 26 -291 31 -170 5 -186 7 -201 26 -16 20 -40 16 -38
-6 0 -9 2 -9 6 0 4 10 7 10 17 0 19 -18 26 -54 11 -54 -7 0 -11 6 -8 13 6 17
-17 29 -27 14 -6 -9 -11 -7 -19 9 -7 11 -17 21 -24 21 -8 0 -7 -4 3 -11 11 -8
7 -9 -17 -4 -19 4 -41 1 -55 -6 -13 -7 -29 -12 -35 -11 -8 2 -10 -3 -7 -13 3
-8 11 -12 17 -8 16 10 69 14 64 5 -3 -4 6 -8 20 -8 17 -2 23 2 19 12 -6 16 10
19 19 4 5 -8 12 -7 22 1 12 11 13 9 8 -13 -5 -21 -2 -29 16 -38 18 -10 21 -10
16 2 -3 8 1 15 8 15 6 0 12 -10 11 -21 -1 -12 4 -20 10 -19 7 1 20 -8 30 -20
16 -18 16 -19 2 -8 -15 11 -19 11 -24 -3 -3 -9 -1 -23 6 -31 8 -10 9 -15 2
-15 -6 0 -16 -10 -23 -22 -10 -18 -9 -20 5 -15 31 12 16 -10 -19 -26 -19 -9
-35 -22 -35 -27 0 -6 5 -8 10 -5 19 12 104 15 92 3 -5 -5 -22 -11 -36 -11 -14
-1 -26 -5 -26 -9 0 -14 -62 -28 -79 -17 -13 8 -11 9 9 4 22 -5 23 -4 7 5 -21
13 -47 -2 -47 -27 0 -9 -6 -13 -15 -9 -8 3 -15 1 -15 -4 0 -6 -4 -10 -8 -10
-4 0 -8 9 -8 20 0 11 6 20 13 20 7 0 13 4 13 9 0 6 -12 6 -30 0 -17 -6 -30
-15 -30 -21 0 -5 5 -6 10 -3 6 3 10 -3 10 -14 0 -14 -5 -19 -15 -15 -8 4 -15
2 -15 -4 0 -14 -67 -35 -81 -26 -8 4 -9 3 -5 -4 10 -17 -43 -28 -57 -12 -9 10
-9 11 0 6 8 -5 8 2 -2 21 -10 18 -11 29 -4 34 11 6 -19 24 -35 20 -10 -2 -42
40 -38 52 1 4 -3 7 -8 7 -6 0 -10 7 -10 16 0 8 4 13 9 10 4 -3 6 6 3 19 -2 14
-9 22 -14 19 -5 -3 -7 -12 -4 -20 10 -26 -3 -14 -19 17 -9 17 -14 33 -11 36 3
3 10 -5 15 -18 5 -13 10 -19 10 -12 1 6 4 20 7 30 4 13 3 15 -4 4 -11 -16 -27
3 -16 20 4 8 0 8 -15 0 -14 -8 -21 -8 -21 -1 0 18 -31 11 -117 -30 -200 -93
-346 -221 -412 -359 -31 -67 -36 -85 -35 -151 0 -60 5 -87 26 -132 26 -56 104
-150 140 -169 16 -9 17 -7 6 18 -6 15 -26 44 -44 63 -34 37 -69 99 -79 140 -6
24 -1 26 80 54 109 37 257 111 337 169 69 50 158 133 158 148 0 11 82 -28 92
-45 15 -22 8 -37 -22 -47 -16 -6 -30 -17 -30 -24 0 -11 6 -12 31 -3 16 6 33 7
37 3 4 -3 32 -91 63 -193 l56 -187 -19 -43 c-31 -74 -20 -111 16 -51 10 17 20
29 22 27 3 -4 78 -246 201 -657 55 -180 55 -185 37 -200 -16 -13 -19 -26 -16
-70 8 -112 -15 -56 -138 329 -93 294 -112 352 -118 368 -2 6 3 12 12 12 22 0
20 17 -3 23 -14 3 -27 30 -50 102 -17 53 -40 114 -51 136 -22 41 -20 45 11 29
15 -8 19 -7 19 4 0 9 -18 25 -39 36 -31 15 -50 38 -91 110 -29 50 -54 89 -56
87 -2 -2 31 -69 74 -149 l79 -146 -224 -81 c-122 -45 -227 -81 -232 -81 -5 0
-14 14 -21 30 -7 17 -17 33 -22 36 -5 3 0 -12 11 -34 11 -22 37 -85 57 -139
20 -54 56 -153 81 -220 41 -112 44 -125 33 -153 -15 -35 -6 -52 13 -26 11 15
15 12 31 -33 13 -38 15 -54 7 -70 -15 -28 -13 -40 3 -18 12 15 17 8 45 -66 35
-93 37 -109 16 -101 -8 4 -15 1 -15 -4 0 -6 10 -12 22 -14 28 -4 68 -108 41
-108 -8 0 -25 -12 -36 -27 l-21 -27 -27 60 -27 59 20 33 c11 18 18 35 16 38
-3 2 -11 -7 -18 -21 -7 -14 -16 -25 -19 -25 -7 0 -61 138 -61 153 0 5 15 6 32
3 30 -5 30 -4 -5 7 -24 8 -45 24 -57 45 -29 47 -26 56 15 49 53 -9 42 9 -14
23 -44 10 -50 15 -72 61 -12 28 -27 53 -32 56 -4 2 20 -50 53 -117 42 -84 58
-125 50 -130 -6 -4 -106 -43 -221 -86 -193 -73 -209 -81 -205 -100 3 -12 45
-110 92 -218 47 -108 84 -202 81 -209 -2 -7 -51 -68 -108 -136 -141 -168 -191
-231 -187 -231 4 0 159 180 284 329 l21 25 22 -42 c12 -23 26 -42 31 -42 19 0
9 -16 -76 -130 -99 -133 -198 -237 -267 -282 -46 -30 -54 -31 -141 -30 -181 3
-754 106 -1093 196 -42 11 -53 12 -53 2 0 -8 50 -25 133 -44 431 -103 835
-172 1003 -172 l94 0 0 -40 c0 -49 6 -48 -160 -15 -69 13 -134 24 -145 24 -27
-1 253 -58 288 -59 42 0 75 21 142 92 130 136 341 386 400 477 23 34 40 44
161 91 l135 54 -3 34 c-5 56 33 64 94 20 16 -11 68 7 396 138 29 12 33 17 30
46 -3 30 -1 33 25 32 16 -1 39 -7 52 -14 20 -11 46 -3 224 66 153 60 201 83
201 96 0 30 41 50 76 37 26 -10 47 -4 194 54 91 36 181 68 200 71 19 4 134 15
255 26 121 11 364 34 540 50 316 29 836 76 1175 105 96 9 220 19 275 24 l100
9 63 -68 c270 -295 742 -451 1210 -399 53 6 102 16 108 22 7 7 19 55 28 107
17 96 34 160 42 160 2 0 23 -12 45 -26 l41 -25 91 26 c236 67 437 192 542 338
28 39 49 57 70 61 27 6 28 8 13 20 -15 11 -16 17 -3 59 7 25 21 97 30 160 12
94 22 129 54 193 53 106 71 183 71 295 0 257 -159 497 -445 672 -33 20 -63 37
-65 37 -3 0 -25 -19 -50 -42z m-5363 -74 c-3 -3 -12 -4 -19 -1 -8 3 -5 6 6 6
11 1 17 -2 13 -5z m546 -34 c31 -7 57 -16 57 -20 0 -4 -19 -15 -42 -25 -55
-21 -186 -97 -234 -136 -20 -16 -40 -29 -43 -29 -7 0 -141 214 -141 225 0 12
338 -2 403 -15z m-861 -203 c31 -56 55 -103 54 -105 -2 -1 -15 2 -30 7 -18 7
-26 7 -26 0 0 -20 -125 -141 -190 -184 -105 -69 -335 -175 -381 -175 -15 0
-10 64 11 132 30 98 99 186 214 275 62 49 251 153 276 152 9 0 39 -43 72 -102z
m533 65 c-3 -3 4 -16 16 -28 12 -12 19 -29 16 -36 -4 -9 -6 -7 -6 5 -1 9 -6
17 -12 17 -5 0 -7 -6 -3 -12 4 -7 -3 -4 -16 7 -20 17 -23 18 -17 3 4 -10 3
-18 -1 -18 -4 0 -17 -3 -29 -6 -14 -4 -23 -2 -23 5 0 6 8 11 18 11 20 0 40 28
36 52 -1 11 3 15 12 11 8 -3 12 -8 9 -11z m-170 -132 c3 -5 1 -10 -4 -10 -6 0
-11 5 -11 10 0 6 2 10 4 10 3 0 8 -4 11 -10z m-275 -40 c0 -5 -2 -10 -4 -10
-3 0 -8 5 -11 10 -3 6 -1 10 4 10 6 0 11 -4 11 -10z m1254 -360 c30 -48 32
-56 23 -91 -5 -22 -13 -39 -17 -39 -3 0 -16 43 -26 95 -11 52 -19 93 -16 91 2
-2 18 -27 36 -56z m-487 -172 l15 -58 -29 -24 c-49 -44 -54 -39 -93 114 -15
58 -19 85 -11 88 6 2 11 16 11 31 0 15 3 31 6 34 12 11 85 -125 101 -185z
m569 -97 c11 -66 16 -117 12 -115 -4 3 -11 -2 -15 -11 -3 -10 0 -21 8 -25 11
-7 11 -13 -1 -35 -13 -25 -15 -20 -41 109 -15 74 -30 144 -34 155 -5 16 -1 23
17 30 13 6 26 10 29 10 3 1 14 -53 25 -118z m1177 94 c34 -15 13 -39 -52 -63
-110 -39 -453 -92 -597 -92 -31 0 -32 2 -43 61 -6 34 -8 65 -6 69 3 4 58 13
122 20 65 6 125 13 133 15 29 7 425 -2 443 -10z m34 -257 c-8 -247 -11 -264
-49 -288 -61 -37 -292 -81 -498 -95 l-96 -7 -17 124 c-10 68 -26 173 -35 235
l-18 111 81 7 c235 19 494 63 575 98 66 29 63 38 57 -185z m-1737 95 c0 -6 27
-121 60 -255 33 -133 60 -248 60 -255 0 -6 -13 -20 -30 -30 -30 -17 -30 -19
-12 -73 3 -11 2 -12 -6 -5 -9 8 -134 465 -166 606 -5 22 0 30 32 53 l37 26 12
-27 c7 -16 12 -33 13 -40z m-935 -1047 c-10 -14 -21 -23 -26 -20 -5 3 1 19 13
36 26 37 37 21 13 -16z m-301 -398 c-101 -145 -392 -482 -440 -510 l-29 -16
-1 36 c-2 35 2 39 68 82 84 54 149 122 270 284 105 140 137 176 155 176 8 0
-1 -21 -23 -52z"/>
<path d="M2620 8295 c0 -6 117 -65 130 -65 25 0 6 18 -45 43 -51 25 -85 34
-85 22z"/>
<path d="M1944 8017 l-39 -42 40 35 c22 19 42 36 44 38 2 1 2 4 0 7 -3 2 -23
-14 -45 -38z"/>
<path d="M1884 8039 c-3 -6 -1 -16 4 -21 8 -8 11 -5 9 11 -1 24 -3 25 -13 10z"/>
<path d="M1913 8035 c0 -8 4 -15 9 -15 4 0 8 7 8 15 0 8 -4 15 -8 15 -5 0 -9
-7 -9 -15z"/>
<path d="M1720 8025 c8 -10 7 -14 -7 -18 -17 -4 -17 -5 0 -6 10 0 17 -7 14
-13 -2 -7 -17 -12 -32 -11 -21 2 -25 -1 -17 -9 8 -8 20 -9 39 -2 35 12 43 59
12 67 -16 4 -18 3 -9 -8z"/>
<path d="M1779 8019 c-9 -17 -8 -25 5 -37 23 -24 71 -5 71 27 0 14 -5 26 -10
28 -6 2 -11 -9 -10 -24 0 -19 -6 -29 -19 -31 -16 -3 -18 1 -14 27 5 36 -6 41
-23 10z"/>
<path d="M1675 8020 c-3 -5 -2 -10 4 -10 5 0 13 5 16 10 3 6 2 10 -4 10 -5 0
-13 -4 -16 -10z"/>
<path d="M1970 8005 c0 -8 4 -15 8 -15 5 0 9 7 9 15 0 8 -4 15 -9 15 -4 0 -8
-7 -8 -15z"/>
<path d="M2000 8004 c0 -8 5 -12 10 -9 6 3 10 10 10 16 0 5 -4 9 -10 9 -5 0
-10 -7 -10 -16z"/>
<path d="M4316 7220 c-35 -39 -46 -57 -27 -45 12 7 74 85 68 85 -3 0 -21 -18
-41 -40z"/>
<path d="M4245 7240 c-4 -7 -3 -16 3 -22 14 -14 47 -6 47 12 0 18 -40 26 -50
10z m35 -10 c0 -5 -4 -10 -10 -10 -5 0 -10 5 -10 10 0 6 5 10 10 10 6 0 10 -4
10 -10z"/>
<path d="M4147 7233 c-13 -12 -7 -33 8 -33 8 0 15 6 15 14 0 8 10 17 23 19 17
3 15 5 -9 6 -17 0 -34 -2 -37 -6z"/>
<path d="M4030 7213 c0 -13 3 -14 12 -5 13 13 48 16 48 4 0 -4 -13 -16 -30
-25 -52 -31 -35 -45 35 -27 l30 8 -30 1 -30 2 23 16 c35 25 28 43 -18 43 -31
0 -40 -4 -40 -17z"/>
<path d="M4193 7209 c27 -16 3 -40 -32 -34 -23 5 -24 4 -6 -5 15 -8 29 -8 48
-1 30 12 36 35 11 45 -26 10 -40 6 -21 -5z"/>
<path d="M4344 7209 c-3 -6 -1 -16 5 -22 8 -8 11 -5 11 11 0 24 -5 28 -16 11z"/>
<path d="M4374 7201 c0 -15 3 -17 13 -9 7 6 10 14 7 19 -9 15 -20 10 -20 -10z"/>
<path d="M4555 7163 c2 -16 7 -54 10 -85 5 -42 11 -58 22 -58 12 0 14 12 8 78
-8 86 -10 92 -30 92 -10 0 -13 -8 -10 -27z"/>
<path d="M4447 7093 c-10 -17 6 -73 20 -73 10 0 13 10 11 37 -3 34 -20 54 -31
36z"/>
<path d="M8455 8460 c-3 -6 1 -7 9 -4 18 7 21 14 7 14 -6 0 -13 -4 -16 -10z"/>
<path d="M8400 8435 c-14 -8 -20 -14 -15 -14 6 0 21 6 35 14 14 8 21 14 15 14
-5 0 -21 -6 -35 -14z"/>
<path d="M2175 8320 l-20 -9 20 -1 c12 -1 6 -5 -15 -11 -19 -4 -41 -6 -48 -4
-8 3 -10 0 -6 -7 5 -7 2 -9 -8 -6 -8 4 -15 1 -15 -6 0 -6 8 -12 18 -12 10 0
15 4 13 8 -3 4 4 8 16 8 12 0 19 -4 15 -9 -3 -5 0 -13 6 -17 8 -4 9 -3 5 4 -4
7 -1 12 6 12 9 0 9 3 -2 10 -13 8 -12 10 4 10 10 0 24 -7 30 -16 14 -19 45 -9
41 14 -2 9 -4 21 -4 25 -1 5 -11 5 -22 2 -15 -5 -19 -4 -15 4 8 13 8 13 -19 1z
m42 -35 c0 -8 -4 -15 -9 -15 -4 0 -8 7 -8 15 0 8 4 15 8 15 5 0 9 -7 9 -15z"/>
<path d="M4619 8283 l-34 -38 38 34 c34 33 42 41 34 41 -2 0 -19 -17 -38 -37z"/>
<path d="M4478 8303 c-22 -5 -24 -33 -3 -33 8 0 14 5 13 12 -2 6 8 15 22 19
19 5 20 7 5 7 -11 0 -28 -2 -37 -5z"/>
<path d="M4550 8301 c0 -6 4 -12 8 -15 5 -3 9 1 9 9 0 8 -4 15 -9 15 -4 0 -8
-4 -8 -9z"/>
<path d="M4586 8295 c4 -8 8 -15 10 -15 2 0 4 7 4 15 0 8 -4 15 -10 15 -5 0
-7 -7 -4 -15z"/>
<path d="M4370 8283 c-24 -14 -24 -14 -2 -10 18 4 22 1 22 -19 0 -13 5 -24 10
-24 6 0 10 16 10 35 0 38 -3 40 -40 18z"/>
<path d="M8543 8293 c15 -2 37 -2 50 0 12 2 0 4 -28 4 -27 0 -38 -2 -22 -4z"/>
<path d="M2436 8273 c-3 -10 -9 -25 -13 -33 -6 -13 -4 -13 12 0 14 11 19 12
22 3 6 -18 20 -16 27 4 4 10 4 14 0 10 -4 -3 -15 2 -24 13 -16 19 -18 19 -24
3z"/>
<path d="M8490 8281 c0 -6 4 -13 10 -16 6 -3 7 1 4 9 -7 18 -14 21 -14 7z"/>
<path d="M8653 8283 c15 -2 37 -2 50 0 12 2 0 4 -28 4 -27 0 -38 -2 -22 -4z"/>
<path d="M2050 8270 c-11 -7 -11 -10 -2 -10 7 0 11 -4 8 -8 -3 -5 1 -9 9 -9
10 0 12 4 5 12 -5 7 -7 15 -3 18 9 10 0 8 -17 -3z"/>
<path d="M2492 8266 c7 -8 15 -12 17 -11 5 6 -10 25 -20 25 -5 0 -4 -6 3 -14z"/>
<path d="M4508 8274 c22 -10 13 -23 -20 -27 -27 -4 -25 -4 7 -3 28 1 40 5 40
16 0 8 -9 16 -20 17 -11 2 -14 0 -7 -3z"/>
<path d="M4640 8271 c0 -6 5 -13 10 -16 6 -3 10 1 10 9 0 9 -4 16 -10 16 -5 0
-10 -4 -10 -9z"/>
<path d="M8790 8270 c30 -4 83 -8 118 -9 47 -1 62 -5 62 -15 0 -8 -12 -17 -27
-19 -26 -4 -26 -4 5 -6 28 -1 32 2 32 24 0 23 -4 25 -43 25 -24 0 -80 2 -123
4 -70 4 -73 4 -24 -4z"/>
<path d="M8563 8253 c15 -2 39 -2 55 0 15 2 2 4 -28 4 -30 0 -43 -2 -27 -4z"/>
<path d="M2100 8240 c0 -5 7 -10 15 -10 8 0 15 5 15 10 0 6 -7 10 -15 10 -8 0
-15 -4 -15 -10z"/>
<path d="M8725 8240 c39 -4 93 -7 120 -7 l50 0 -60 7 c-33 4 -87 8 -120 7
l-60 0 70 -7z"/>
<path d="M2148 8213 c7 -3 16 -2 19 1 4 3 -2 6 -13 5 -11 0 -14 -3 -6 -6z"/>
<path d="M2180 8200 c0 -5 5 -10 11 -10 5 0 7 5 4 10 -3 6 -8 10 -11 10 -2 0
-4 -4 -4 -10z"/>
<path d="M2300 8190 c0 -5 9 -10 20 -10 11 0 20 5 20 10 0 6 -9 10 -20 10 -11
0 -20 -4 -20 -10z"/>
<path d="M2135 8160 c-3 -5 1 -10 10 -10 9 0 13 5 10 10 -3 6 -8 10 -10 10 -2
0 -7 -4 -10 -10z"/>
<path d="M8598 8143 c18 -2 45 -2 60 0 15 2 0 4 -33 4 -33 0 -45 -2 -27 -4z"/>
<path d="M8750 8130 c30 -5 75 -8 100 -8 41 1 40 2 -15 8 -33 4 -78 8 -100 8
-34 -1 -32 -2 15 -8z"/>
<path d="M2100 8114 c0 -9 5 -14 12 -12 18 6 21 28 4 28 -9 0 -16 -7 -16 -16z"/>
<path d="M8953 8113 c32 -3 47 -9 47 -18 0 -12 -15 -13 -82 -8 -46 3 -81 4
-78 1 3 -3 45 -8 93 -12 88 -7 89 -7 85 16 -3 21 -9 23 -58 24 -51 1 -52 1 -7
-3z"/>
<path d="M8640 8099 c47 -4 108 -7 135 -6 48 0 47 0 -15 7 -36 4 -96 7 -135 7
l-70 0 85 -8z"/>
<path d="M2176 8091 c-4 -5 -2 -12 3 -15 5 -4 12 -2 15 3 4 5 2 12 -3 15 -5 4
-12 2 -15 -3z"/>
<path d="M2244 8020 c0 -10 6 -16 13 -13 7 3 13 9 13 13 0 4 -6 10 -13 13 -7
3 -13 -3 -13 -13z"/>
<path d="M5818 8023 c12 -2 30 -2 40 0 9 3 -1 5 -23 4 -22 0 -30 -2 -17 -4z"/>
<path d="M5625 8010 c-29 -7 -29 -8 -4 -9 15 0 34 -11 43 -23 13 -18 16 -19
12 -5 -3 10 -6 25 -6 33 0 15 -1 15 -45 4z"/>
<path d="M5728 8013 c12 -2 30 -2 40 0 9 3 -1 5 -23 4 -22 0 -30 -2 -17 -4z"/>
<path d="M8551 7994 c0 -11 3 -14 6 -6 3 7 2 16 -1 19 -3 4 -6 -2 -5 -13z"/>
<path d="M8663 8003 c15 -2 39 -2 55 0 15 2 2 4 -28 4 -30 0 -43 -2 -27 -4z"/>
<path d="M2905 7990 c-11 -18 13 -36 31 -25 9 6 16 15 17 20 3 14 -40 18 -48
5z m35 -10 c0 -5 -4 -10 -10 -10 -5 0 -10 5 -10 10 0 6 5 10 10 10 6 0 10 -4
10 -10z"/>
<path d="M2972 7969 c-19 -17 -32 -32 -30 -35 3 -2 20 12 38 31 42 43 37 45
-8 4z"/>
<path d="M5508 7993 c12 -2 32 -2 45 0 12 2 2 4 -23 4 -25 0 -35 -2 -22 -4z"/>
<path d="M8815 7990 c39 -5 105 -12 148 -15 93 -8 93 -25 0 -25 -84 0 -78 -5
15 -14 71 -6 72 -6 72 18 0 21 -5 24 -62 29 -35 4 -103 8 -153 11 -89 5 -89 5
-20 -4z"/>
<path d="M2735 7979 c-33 -5 -35 -6 -11 -8 28 -1 29 -2 12 -20 -10 -11 -16
-25 -15 -30 2 -6 17 5 32 25 16 19 27 36 25 38 -1 1 -21 -1 -43 -5z"/>
<path d="M2813 7983 c-21 -8 -15 -51 7 -58 41 -13 84 24 65 55 -6 10 -50 12
-72 3z m47 -29 c0 -33 -33 -30 -38 4 -3 17 2 22 17 22 16 0 21 -6 21 -26z"/>
<path d="M5276 7982 c-2 -4 4 -19 15 -32 20 -24 20 -24 14 -2 -5 19 -3 22 21
22 34 0 29 5 -13 13 -18 4 -34 3 -37 -1z"/>
<path d="M5418 7983 c12 -2 30 -2 40 0 9 3 -1 5 -23 4 -22 0 -30 -2 -17 -4z"/>
<path d="M2997 7963 c-10 -9 -9 -23 2 -23 5 0 11 7 15 15 5 15 -5 20 -17 8z"/>
<path d="M3030 7960 c0 -5 5 -10 11 -10 5 0 7 5 4 10 -3 6 -8 10 -11 10 -2 0
-4 -4 -4 -10z"/>
<path d="M5193 7963 c15 -2 37 -2 50 0 12 2 0 4 -28 4 -27 0 -38 -2 -22 -4z"/>
<path d="M8591 7966 c2 -2 69 -6 149 -9 92 -3 120 -2 75 3 -75 8 -231 12 -224
6z"/>
<path d="M4895 7951 c-6 -5 -21 -11 -35 -14 -21 -4 -20 -4 8 -6 21 -1 32 -6
32 -16 0 -8 4 -15 10 -15 5 0 7 6 4 14 -6 15 8 19 91 30 17 2 2 2 -32 1 -34
-1 -64 2 -65 7 -2 5 -7 5 -13 -1z"/>
<path d="M5088 7953 c12 -2 32 -2 45 0 12 2 2 4 -23 4 -25 0 -35 -2 -22 -4z"/>
<path d="M4572 7918 c-4 -4 -27 -8 -52 -11 l-45 -4 52 -1 c38 -2 55 -7 62 -19
9 -16 10 -16 11 4 0 19 6 22 53 25 l52 3 -63 5 c-35 3 -66 2 -70 -2z"/>
<path d="M4743 7923 c15 -2 39 -2 55 0 15 2 2 4 -28 4 -30 0 -43 -2 -27 -4z"/>
<path d="M8581 7866 c2 -2 58 -6 124 -9 81 -3 100 -2 60 3 -63 8 -191 13 -184
6z"/>
<path d="M8566 7847 c3 -10 9 -15 12 -12 3 3 0 11 -7 18 -10 9 -11 8 -5 -6z"/>
<path d="M3815 7826 c10 -14 19 -26 22 -26 7 0 -17 39 -28 46 -6 3 -3 -5 6
-20z"/>
<path d="M8853 7843 c15 -2 37 -2 50 0 12 2 0 4 -28 4 -27 0 -38 -2 -22 -4z"/>
<path d="M8993 7833 c53 -3 67 -7 67 -20 0 -14 -10 -15 -72 -9 -181 15 -370
27 -375 23 -2 -3 40 -8 94 -12 54 -3 139 -10 190 -16 51 -5 112 -9 136 -9 42
0 44 1 39 25 -4 24 -7 25 -76 23 l-71 -2 68 -3z"/>
<path d="M5098 7769 c-10 -5 -18 -14 -18 -20 0 -19 69 -39 127 -38 l58 2 -73
7 c-82 7 -107 22 -76 45 22 16 8 20 -18 4z"/>
<path d="M3880 7730 c12 -16 24 -30 26 -30 3 0 -4 14 -16 30 -12 17 -24 30
-26 30 -3 0 4 -13 16 -30z"/>
<path d="M8923 7724 c-20 -9 -15 -31 8 -37 29 -8 51 2 47 22 -3 16 -33 24 -55
15z m42 -13 c7 -12 -12 -24 -25 -16 -11 7 -4 25 10 25 5 0 11 -4 15 -9z"/>
<path d="M9072 7663 c3 -46 5 -48 33 -49 29 -2 29 -2 3 3 -25 4 -28 9 -28 44
0 37 2 39 30 39 29 0 30 -2 30 -45 0 -25 5 -45 10 -45 11 0 14 59 4 84 -4 11
-19 16 -46 16 l-39 0 3 -47z"/>
<path d="M1580 7520 c11 -22 23 -40 25 -40 3 0 -4 18 -15 40 -11 22 -23 40
-25 40 -3 0 4 -18 15 -40z"/>
<path d="M5686 7524 c-16 -19 -27 -36 -25 -39 2 -2 19 14 37 36 18 21 30 39
25 38 -4 0 -21 -16 -37 -35z"/>
<path d="M5564 7531 c20 -22 15 -51 -8 -51 -17 0 -27 24 -19 46 4 12 2 15 -8
12 -19 -6 -18 -48 2 -61 9 -5 28 -7 43 -3 22 5 27 12 24 33 -2 17 -12 29 -27
35 -24 9 -24 8 -7 -11z"/>
<path d="M5615 7541 c-3 -5 -1 -12 5 -16 5 -3 10 1 10 9 0 18 -6 21 -15 7z"/>
<path d="M5650 7536 c0 -9 5 -16 10 -16 6 0 10 4 10 9 0 6 -4 13 -10 16 -5 3
-10 -1 -10 -9z"/>
<path d="M5423 7533 c-7 -2 -13 -13 -13 -24 0 -15 5 -17 30 -12 24 4 30 2 30
-12 0 -14 -6 -16 -30 -11 -19 3 -29 2 -25 -4 9 -14 58 -13 73 2 16 16 -4 38
-37 39 l-26 1 30 13 c29 14 29 14 5 14 -14 0 -31 -3 -37 -6z"/>
<path d="M5710 7505 c0 -8 5 -15 10 -15 6 0 10 7 10 15 0 8 -4 15 -10 15 -5 0
-10 -7 -10 -15z"/>
<path d="M5750 7504 c0 -8 5 -12 10 -9 6 4 8 11 5 16 -9 14 -15 11 -15 -7z"/>
<path d="M1610 7464 c0 -6 7 -19 16 -30 14 -18 14 -18 3 6 -14 31 -19 36 -19
24z"/>
<path d="M9462 7260 c-270 -38 -487 -160 -564 -318 -29 -59 -33 -76 -33 -147
0 -72 4 -89 34 -150 35 -72 148 -195 203 -224 25 -13 33 -11 95 16 196 88 493
111 743 59 41 -9 77 -16 80 -16 3 0 4 30 2 68 -8 171 126 325 350 403 44 15
82 29 85 32 10 11 -136 111 -222 152 -100 49 -227 93 -289 100 -36 4 -34 3 14
-10 113 -32 207 -67 277 -103 72 -36 193 -119 193 -131 0 -3 -36 -19 -79 -34
-210 -74 -341 -218 -350 -384 -2 -40 -7 -73 -12 -73 -5 0 -51 7 -101 16 -112
20 -331 22 -443 5 -89 -14 -220 -53 -278 -83 l-39 -19 -54 41 c-66 50 -128
126 -163 200 -38 80 -37 192 1 273 97 207 427 343 787 324 64 -4 136 -9 161
-12 44 -4 44 -4 10 5 -48 14 -331 21 -408 10z"/>
<path d="M9911 7051 c-13 -23 -91 -224 -91 -233 0 -3 8 -4 18 -2 10 3 26 28
38 62 12 31 33 87 47 125 21 52 23 67 12 67 -8 0 -19 -8 -24 -19z"/>
<path d="M9688 7043 c-23 -6 -33 -45 -19 -71 22 -42 133 -55 148 -16 22 57
-52 107 -129 87z m77 -29 c20 -21 16 -58 -8 -62 -34 -7 -73 49 -50 71 12 12
41 7 58 -9z"/>
<path d="M9412 7004 c-43 -30 -22 -127 37 -177 28 -23 42 -27 96 -27 57 0 66
3 85 27 15 20 19 35 14 57 -17 84 -78 136 -158 136 -30 0 -61 -6 -74 -16z
m144 -39 c36 -38 53 -98 37 -124 -14 -22 -69 -26 -99 -7 -28 19 -64 85 -64
119 0 32 18 47 58 47 27 0 42 -8 68 -35z"/>
<path d="M9156 6991 c-45 -4 -71 -11 -74 -19 -3 -11 13 -12 89 -6 l93 7 -21
-27 c-26 -32 -47 -117 -39 -151 4 -16 13 -25 26 -25 17 0 20 7 20 49 0 34 9
66 30 107 16 32 30 62 30 67 0 7 -42 7 -154 -2z"/>
<path d="M10467 6930 c-110 -41 -184 -86 -248 -150 -78 -80 -102 -134 -107
-241 l-4 -87 84 -27 c45 -15 126 -49 179 -76 l96 -48 49 33 c68 46 131 117
162 184 22 47 27 71 27 137 0 69 -4 89 -31 145 -28 59 -106 161 -122 160 -4
-1 -42 -14 -85 -30z m125 -30 c19 -22 48 -66 64 -97 26 -51 29 -68 29 -148 0
-79 -4 -96 -29 -144 -31 -60 -115 -150 -164 -175 -31 -16 -33 -16 -104 20 -40
21 -113 52 -163 70 l-90 32 -3 72 c-3 62 1 80 26 134 34 72 104 146 186 195
58 35 168 80 198 80 9 1 32 -17 50 -39z"/>
<path d="M10466 6624 c-9 -26 -14 -49 -12 -51 2 -2 11 17 20 43 9 26 14 49 12
51 -2 2 -11 -17 -20 -43z"/>
<path d="M10390 6640 c0 -11 4 -20 10 -20 5 0 7 7 4 15 -4 10 0 15 11 15 13 0
16 -6 12 -21 -4 -17 -3 -18 9 -8 11 9 12 15 3 25 -18 21 -49 17 -49 -6z"/>
<path d="M10284 6636 c-13 -34 39 -83 76 -71 26 8 25 40 0 65 -23 23 -68 27
-76 6z m63 -8 c20 -26 23 -49 7 -55 -19 -7 -54 24 -54 49 0 21 32 25 47 6z"/>
<path d="M10199 6623 c-12 -15 -12 -16 3 -11 11 5 20 -2 28 -23 7 -16 16 -29
21 -29 5 0 2 16 -6 36 -8 20 -15 38 -15 40 0 10 -19 2 -31 -13z"/>
<path d="M10496 6611 c-3 -5 1 -14 8 -20 12 -10 13 -8 9 8 -6 23 -9 25 -17 12z"/>
<path d="M10537 6599 c4 -13 8 -18 11 -10 2 7 -1 18 -6 23 -8 8 -9 4 -5 -13z"/>
<path d="M9957 6935 c-22 -21 -21 -37 1 -64 24 -30 70 -41 112 -27 41 13 50
42 22 76 -25 30 -110 40 -135 15z m101 -23 c17 -22 15 -49 -4 -56 -26 -10 -50
2 -63 31 -11 23 -10 29 4 39 19 14 44 8 63 -14z"/>
<path d="M1696 6877 c3 -10 9 -15 12 -12 3 3 0 11 -7 18 -10 9 -11 8 -5 -6z"/>
<path d="M770 6860 c-45 -27 -332 -318 -408 -413 -31 -39 -126 -146 -210 -236
-84 -90 -152 -173 -152 -183 0 -13 15 -1 52 40 29 32 105 115 168 183 64 68
142 158 175 199 33 41 135 150 227 242 l166 168 70 0 c76 0 261 -22 413 -49
53 -9 105 -14 115 -10 15 5 11 8 -16 13 -197 34 -359 55 -470 62 -85 5 -99 3
-130 -16z"/>
<path d="M665 6578 c-244 -247 -665 -719 -665 -745 0 -3 2 -4 4 -2 2 2 43 51
92 109 161 192 417 473 584 642 151 153 168 167 205 171 l40 4 -40 1 c-39 2
-43 -2 -220 -180z"/>
<path d="M1053 6733 c9 -2 23 -2 30 0 6 3 -1 5 -18 5 -16 0 -22 -2 -12 -5z"/>
<path d="M1118 6723 c6 -2 18 -2 25 0 6 3 1 5 -13 5 -14 0 -19 -2 -12 -5z"/>
<path d="M1208 6713 c6 -2 18 -2 25 0 6 3 1 5 -13 5 -14 0 -19 -2 -12 -5z"/>
<path d="M983 6593 c15 -2 37 -2 50 0 12 2 0 4 -28 4 -27 0 -38 -2 -22 -4z"/>
<path d="M1130 6565 c10 -12 10 -18 -1 -32 -13 -16 -12 -17 4 -4 21 17 22 37
1 45 -14 5 -15 4 -4 -9z"/>
<path d="M7573 6560 c-13 -5 -23 -14 -23 -20 0 -13 16 -13 40 2 32 20 37 -2 6
-29 -16 -14 -25 -28 -20 -33 12 -12 95 0 88 12 -4 5 -18 7 -33 4 l-26 -6 23
19 c27 24 28 37 3 51 -23 12 -28 12 -58 0z"/>
<path d="M7465 6539 c-29 -19 -28 -23 8 -20 11 2 17 -5 17 -19 0 -19 25 -39
35 -28 6 5 -14 69 -24 79 -3 4 -19 -2 -36 -12z"/>
<path d="M1054 6484 c-18 -14 -18 -15 4 -4 12 6 22 13 22 15 0 8 -5 6 -26 -11z"/>
<path d="M1004 6454 c-18 -14 -18 -15 4 -4 12 6 22 13 22 15 0 8 -5 6 -26 -11z"/>
<path d="M9490 6439 c-134 -20 -350 -95 -336 -117 10 -16 189 -99 271 -125
158 -51 235 -62 440 -61 206 0 291 14 433 70 111 44 112 47 49 83 -123 70
-329 137 -452 146 -48 4 -38 1 45 -15 57 -12 144 -34 192 -50 88 -30 222 -92
232 -108 3 -5 -20 -21 -52 -35 -239 -107 -589 -115 -882 -20 -96 32 -245 103
-245 118 0 15 148 71 240 91 45 10 152 20 245 24 l165 6 -145 1 c-80 0 -170
-3 -200 -8z"/>
<path d="M954 6424 c-18 -14 -18 -15 4 -4 12 6 22 13 22 15 0 8 -5 6 -26 -11z"/>
<path d="M895 6384 c-25 -23 -27 -27 -12 -36 10 -5 34 -7 55 -5 l37 4 -42 1
c-49 2 -51 7 -21 39 29 31 18 29 -17 -3z"/>
<path d="M7600 6396 c0 -7 6 -32 14 -54 l14 -40 -176 -76 c-97 -42 -180 -76
-184 -76 -4 0 -12 25 -19 56 -12 53 -27 73 -47 60 -6 -3 -3 -33 6 -71 11 -45
13 -68 6 -73 -11 -7 -64 -94 -64 -105 0 -13 90 -7 90 6 1 7 6 5 14 -5 7 -10
21 -18 31 -18 14 0 16 5 10 28 -18 63 -21 60 160 138 94 40 175 73 180 74 6 0
27 -63 49 -140 32 -116 42 -140 57 -140 11 0 19 2 19 5 0 2 -18 69 -40 148
-22 80 -38 152 -34 161 4 10 0 22 -8 29 -9 7 -21 33 -28 60 -9 35 -17 47 -31
47 -11 0 -19 -6 -19 -14z"/>
<path d="M5058 6376 c-16 -8 -23 -20 -23 -41 0 -29 2 -30 45 -30 38 0 45 3 45
20 0 16 -8 21 -40 25 -27 3 -36 8 -27 13 7 5 24 6 38 3 13 -4 24 -2 24 3 0 15
-37 19 -62 7z m47 -51 c0 -5 -10 -11 -22 -13 -16 -2 -23 2 -23 13 0 11 7 15
23 13 12 -2 22 -7 22 -13z"/>
<path d="M4923 6363 c-14 -5 -17 -42 -5 -59 14 -20 45 -25 68 -9 57 37 2 95
-63 68z m55 -36 c3 -21 -1 -27 -16 -27 -20 0 -32 24 -24 48 7 23 37 8 40 -21z"/>
<path d="M1007 6319 c4 -15 8 -17 14 -8 8 14 3 29 -11 29 -4 0 -6 -9 -3 -21z"/>
<path d="M9844 6314 c-4 -10 -13 -34 -20 -51 -7 -18 -9 -33 -5 -33 11 0 45 89
37 97 -3 3 -9 -3 -12 -13z"/>
<path d="M9755 6310 c-7 -12 2 -30 15 -30 5 0 7 7 4 15 -4 9 0 15 10 15 9 0
16 -7 16 -16 0 -8 5 -12 10 -9 8 5 7 11 -1 21 -13 16 -45 19 -54 4z"/>
<path d="M9654 6295 c-18 -46 50 -95 84 -61 15 15 15 19 2 44 -19 33 -76 44
-86 17z m68 -20 c9 -20 9 -28 -1 -38 -17 -17 -45 4 -49 37 -3 21 1 26 18 26
12 0 25 -10 32 -25z"/>
<path d="M965 6274 c-18 -16 -22 -22 -9 -15 18 9 53 42 43 41 -2 -1 -17 -12
-34 -26z"/>
<path d="M9540 6285 c0 -12 4 -13 19 -4 10 7 26 9 36 5 17 -6 16 -9 -8 -34
-15 -16 -27 -31 -27 -35 0 -10 51 -7 75 3 14 7 8 8 -20 3 l-40 -6 27 30 c22
23 25 32 16 41 -18 18 -78 16 -78 -3z"/>
<path d="M9864 6264 c3 -9 6 -18 6 -20 0 -6 46 -5 53 2 8 8 -3 34 -14 34 -4 0
-6 -7 -3 -15 4 -9 0 -15 -10 -15 -9 0 -16 7 -16 15 0 8 -5 15 -11 15 -6 0 -8
-7 -5 -16z"/>
<path d="M4100 6260 c-75 -4 -167 -14 -205 -23 -39 -9 -92 -21 -120 -26 l-50
-9 75 -3 c41 -1 83 -3 93 -2 10 0 17 -8 17 -19 0 -14 -5 -18 -17 -14 -10 2
-38 7 -63 10 -42 5 -42 5 15 -12 48 -14 60 -22 65 -42 5 -21 19 -29 82 -50 41
-14 86 -30 99 -36 39 -19 195 -63 274 -79 32 -6 121 -21 192 -31 49 -8 48 -4
64 -142 10 -87 10 -105 -2 -116 -8 -8 -108 -93 -224 -190 -246 -207 -217 -215
-235 64 -15 243 -18 260 -42 260 -17 0 -19 -5 -14 -37 3 -21 8 -87 11 -148 3
-60 10 -163 16 -229 6 -65 8 -120 6 -123 -4 -4 -449 37 -455 42 -3 2 -22 405
-22 483 0 60 -1 63 -22 60 -26 -3 -25 17 -8 -353 5 -104 6 -193 2 -197 -9 -8
-338 -197 -358 -205 -11 -4 -14 36 -16 253 -3 251 -4 259 -23 259 -20 0 -20
-5 -16 -257 2 -142 1 -258 -3 -258 -10 0 -380 172 -390 181 -5 4 -8 42 -7 83
2 75 -4 91 -33 80 -13 -5 -16 -23 -16 -89 0 -58 -4 -85 -12 -88 -10 -3 -10 -9
0 -26 8 -14 12 -72 12 -186 0 -158 1 -165 20 -165 19 0 20 7 20 160 0 88 2
160 3 160 8 0 393 -183 405 -192 7 -7 12 -35 12 -75 0 -56 2 -64 18 -61 14 3
18 17 22 76 l5 73 180 104 180 104 7 -52 c3 -29 6 -100 7 -159 1 -108 1 -108
26 -108 24 0 24 2 20 63 -9 121 -14 265 -10 269 6 6 443 -37 451 -45 4 -4 11
-57 16 -119 5 -61 11 -114 13 -116 2 -3 11 -2 19 1 13 5 15 24 9 129 l-6 123
222 189 c122 103 225 185 228 182 5 -4 61 -517 63 -568 0 -3 9 -4 21 -1 19 5
21 11 15 52 -12 93 -57 564 -54 566 3 3 70 33 256 117 74 33 136 58 138 55 7
-7 31 -165 63 -427 41 -325 38 -310 62 -310 17 0 19 5 14 33 -4 27 -63 508
-80 660 l-6 47 43 -17 c132 -52 432 -173 434 -176 4 -3 74 -440 74 -457 0 -6
10 -10 21 -10 24 0 25 -10 -11 215 -31 192 -34 225 -22 225 19 0 406 -170 413
-182 4 -6 12 -44 19 -86 15 -95 18 -102 41 -102 15 0 17 6 14 28 -3 15 -11 59
-18 98 l-13 71 109 113 109 112 57 -12 c32 -7 63 -15 68 -19 6 -3 24 -69 42
-146 17 -77 34 -150 36 -162 3 -15 13 -23 25 -23 24 0 23 -5 6 78 -20 95 -36
182 -39 217 -2 25 1 30 18 28 11 -1 74 -8 140 -15 102 -10 128 -16 174 -42
l54 -31 26 -100 c19 -74 30 -101 44 -103 22 -4 22 19 -2 125 -25 111 -18 123
76 117 109 -7 298 -25 303 -30 3 -3 19 -51 35 -107 26 -89 33 -102 54 -105 18
-3 22 0 17 15 -5 18 -28 114 -40 166 l-7 28 53 -6 c29 -3 94 -10 143 -15 50
-5 120 -10 157 -10 l68 0 27 -90 c24 -81 29 -90 50 -90 21 0 23 3 17 23 -4 12
-15 54 -24 92 l-17 70 26 3 c14 2 33 10 41 17 8 7 48 23 87 35 69 21 73 24 83
58 5 21 10 45 10 55 0 12 12 23 30 30 37 14 37 24 3 69 -29 37 -168 118 -202
118 -25 0 -39 -26 -22 -43 18 -18 13 -55 -14 -97 -30 -48 -45 -51 -45 -10 0
20 5 30 15 30 12 0 23 18 13 21 -4 1 -220 36 -303 50 -33 5 -85 11 -115 14
-30 2 -113 14 -185 25 -110 17 -400 55 -565 75 -25 3 -62 8 -83 11 l-39 6 7
48 7 47 -45 7 c-102 16 -242 24 -252 15 -12 -12 12 -29 42 -29 56 0 63 -21 40
-129 l-12 -54 -53 -1 -53 -1 7 85 c4 47 8 92 8 100 1 16 -110 30 -804 100
-228 23 -425 43 -436 46 -12 2 -24 13 -27 24 -3 14 -10 18 -22 14 -9 -4 -14
-12 -11 -20 4 -10 -20 -12 -122 -7 -70 3 -133 10 -139 15 -7 6 -20 7 -29 4 -9
-4 -23 -1 -31 5 -10 9 -17 9 -25 1 -8 -8 -17 -7 -33 4 -16 11 -25 12 -30 4 -5
-8 -11 -8 -20 0 -8 7 -23 9 -35 5 -12 -4 -26 -3 -33 2 -7 5 -45 9 -84 9 -40
-1 -73 1 -73 4 0 8 -133 8 -280 0z m250 -17 c-3 -38 -27 -123 -35 -121 -19 6
6 128 26 128 5 0 9 -3 9 -7z m36 -20 c-3 -10 -8 -31 -11 -48 -12 -54 -16 -65
-26 -65 -10 0 -2 69 12 108 10 26 33 30 25 5z m-57 -226 c1 -10 -3 -15 -9 -12
-5 3 -10 23 -9 43 1 33 2 34 9 12 4 -14 8 -33 9 -43z m31 53 c0 -5 -4 -10 -10
-10 -5 0 -10 5 -10 10 0 6 5 10 10 10 6 0 10 -4 10 -10z m2 -45 c3 -14 1 -25
-3 -25 -5 0 -9 4 -9 9 0 5 -3 16 -6 25 -3 9 -2 16 4 16 5 0 12 -11 14 -25z
m488 -129 c74 -13 140 -22 145 -19 7 4 7 2 0 -5 -13 -14 -314 -156 -319 -151
-2 2 -7 50 -11 107 l-8 102 29 -5 c16 -3 90 -16 164 -29z m1526 -82 l49 -12
-52 5 c-69 7 -71 -12 -2 -21 l50 -7 -6 -32 c-4 -18 -9 -34 -11 -36 -6 -6 -73
9 -79 19 -3 4 -7 37 -10 72 -3 39 -2 56 3 43 6 -12 26 -24 58 -31z m-891 -13
c91 -11 105 -18 105 -59 0 -28 2 -28 -140 33 -58 25 -94 44 -80 41 14 -3 66
-10 115 -15z m310 -36 c50 -8 115 -17 145 -21 30 -3 59 -9 64 -12 5 -3 23 -6
40 -7 26 -2 110 -14 139 -21 4 -1 15 -2 25 -3 46 -4 46 -18 -1 -68 -25 -26
-55 -61 -68 -77 -26 -33 -33 -25 -43 49 -10 73 -15 85 -37 85 -23 0 -24 -19
-4 -110 7 -36 12 -66 11 -68 -2 -1 -97 39 -212 90 l-209 93 -3 43 c-3 42 -3
42 30 42 18 0 74 -7 123 -15z m2155 -155 c-12 -57 -40 -104 -40 -66 0 18 -15
22 -25 6 -16 -25 -21 -6 -10 37 8 30 19 49 31 54 11 4 26 14 33 23 22 26 25
11 11 -54z"/>
<path d="M900 6229 c-22 -18 -22 -19 -3 -10 12 6 25 16 28 21 9 15 3 12 -25
-11z"/>
<path d="M780 6153 c-103 -73 -93 -94 45 -91 l90 2 -94 5 c-61 4 -96 10 -98
18 -3 7 17 27 42 45 68 48 81 57 74 58 -3 0 -30 -17 -59 -37z"/>
<path d="M6840 6095 c-14 -17 -4 -55 16 -55 10 0 13 7 8 24 -3 13 -1 27 6 31
17 10 40 -14 40 -42 0 -28 23 -27 28 1 9 43 -69 76 -98 41z"/>
<path d="M6740 6079 c-24 -20 -24 -21 -2 -16 12 3 22 1 22 -4 0 -5 7 -9 16 -9
10 0 14 7 12 22 -4 29 -18 31 -48 7z"/>
<path d="M2443 6078 c-6 -8 -14 -159 -18 -363 -4 -192 -10 -461 -14 -598 l-6
-247 28 0 c15 0 29 6 32 13 2 6 9 188 14 402 6 215 14 483 17 598 l7 207 -26
0 c-13 0 -29 -6 -34 -12z"/>
<path d="M9585 6063 c-163 -14 -455 -62 -455 -74 0 -14 43 -11 220 16 91 14
231 28 311 32 l146 6 28 -74 c15 -41 47 -123 72 -183 30 -76 40 -111 33 -116
-7 -4 -76 -15 -153 -24 -78 -9 -220 -27 -315 -40 -156 -20 -174 -21 -181 -7
-12 22 -89 268 -97 308 -4 18 -12 38 -20 44 -20 17 -36 0 -29 -30 12 -53 108
-356 114 -363 6 -7 706 76 737 87 8 2 -14 68 -60 182 -39 98 -76 193 -83 211
l-11 32 -109 -2 c-59 -1 -126 -3 -148 -5z"/>
<path d="M948 6048 c25 -12 28 -29 10 -61 -10 -20 -10 -21 5 -8 32 26 11 84
-30 80 -4 0 2 -5 15 -11z"/>
<path d="M4130 5940 l-32 -40 34 0 c19 0 39 -5 46 -12 9 -9 15 -8 26 8 8 10
10 21 5 22 -5 2 -9 17 -9 33 0 43 -31 38 -70 -11z m40 -10 c0 -5 -7 -10 -16
-10 -8 0 -12 5 -9 10 3 6 10 10 16 10 5 0 9 -4 9 -10z"/>
<path d="M4012 5959 c-19 -7 -23 -15 -20 -40 4 -41 28 -56 65 -43 35 12 45 61
17 81 -20 15 -30 15 -62 2z m43 -44 c0 -43 -29 -40 -33 3 -3 28 0 33 15 30 13
-2 18 -12 18 -33z"/>
<path d="M7473 5924 c-6 -17 12 -34 39 -34 23 0 32 18 18 35 -16 20 -49 19
-57 -1z"/>
<path d="M7632 5918 c-17 -17 4 -48 34 -48 29 0 42 24 24 45 -15 18 -42 19
-58 3z"/>
<path d="M7786 5907 c-36 -26 14 -68 56 -46 20 11 22 18 10 35 -12 19 -47 25
-66 11z"/>
<path d="M7933 5855 c0 -33 2 -45 4 -27 2 18 2 45 0 60 -2 15 -4 0 -4 -33z"/>
<path d="M3223 5760 c-13 -5 -23 -14 -23 -20 0 -13 17 -13 25 0 8 13 45 13 45
1 0 -5 -16 -19 -35 -31 -19 -12 -35 -26 -35 -31 0 -13 88 -11 96 2 5 8 -3 10
-25 7 -34 -5 -42 7 -11 17 11 3 25 15 30 25 8 15 6 21 -9 30 -23 12 -28 12
-58 0z"/>
<path d="M30 5740 c14 -4 34 -8 45 -8 16 0 15 2 -5 8 -14 4 -34 8 -45 8 -16 0
-15 -2 5 -8z"/>
<path d="M3081 5736 c-7 -8 -11 -27 -9 -43 3 -25 7 -28 42 -28 46 0 69 26 55
63 -6 17 -16 22 -42 22 -19 0 -40 -6 -46 -14z m62 -10 c9 -24 -4 -57 -22 -54
-29 6 -27 68 3 68 7 0 16 -6 19 -14z"/>
<path d="M155 5714 c33 -7 69 -13 80 -13 11 1 -7 7 -40 15 -33 7 -69 13 -80
13 -11 -1 7 -7 40 -15z"/>
<path d="M10090 5715 c0 -20 46 -111 61 -120 25 -16 30 13 9 55 l-22 43 24 -6
c12 -3 43 -9 67 -13 75 -12 44 17 -40 37 -92 22 -99 23 -99 4z"/>
<path d="M261 5696 c2 -2 200 -38 439 -80 239 -42 444 -78 454 -81 10 -2 15 0
10 4 -5 5 -119 28 -254 51 -135 23 -330 57 -435 76 -185 33 -223 38 -214 30z"/>
<path d="M10190 5641 c0 -5 51 -44 114 -87 77 -52 120 -75 131 -70 21 7 17 10
-121 104 -85 58 -124 75 -124 53z"/>
<path d="M462 5624 c-27 -19 -28 -30 -3 -44 39 -20 106 28 70 51 -21 13 -42
11 -67 -7z"/>
<path d="M8 5593 c7 -3 16 -2 19 1 4 3 -2 6 -13 5 -11 0 -14 -3 -6 -6z"/>
<path d="M85 5575 c28 -7 59 -13 70 -13 11 0 -2 6 -30 13 -27 7 -59 13 -70 13
-11 0 3 -6 30 -13z"/>
<path d="M9035 5558 c-73 -37 -73 -37 -55 -48 9 -5 27 -3 49 7 65 28 66 28 79
-21 9 -36 16 -46 33 -46 19 0 21 4 14 38 -10 55 -32 102 -47 102 -7 -1 -40
-15 -73 -32z"/>
<path d="M185 5555 c6 -2 97 -26 203 -55 192 -50 468 -104 500 -98 9 2 -46 14
-123 26 -77 13 -235 48 -351 78 -116 29 -217 54 -225 53 -8 0 -9 -2 -4 -4z"/>
<path d="M9037 5477 c-33 -50 -87 -168 -82 -177 16 -25 38 -2 84 87 27 53 48
100 45 105 -10 15 -32 8 -47 -15z"/>
<path d="M10540 5455 c-230 -28 -400 -58 -400 -72 0 -18 16 -17 192 12 177 28
335 45 419 45 46 0 59 3 59 15 0 19 -115 19 -270 0z"/>
<path d="M10153 5319 c6 -41 126 -378 141 -397 6 -9 21 -11 40 -8 33 6 211 31
341 47 117 14 135 19 135 36 0 13 -8 15 -47 9 -263 -37 -427 -56 -434 -49 -5
5 -33 78 -64 163 -31 85 -61 171 -68 190 -7 20 -21 36 -31 38 -16 4 -18 -1
-13 -29z"/>
<path d="M9055 5279 c-118 -9 -235 -25 -243 -34 -17 -16 19 -23 78 -15 128 18
330 31 345 23 8 -5 44 -92 79 -193 35 -102 66 -192 70 -201 6 -13 -24 -19
-206 -43 -117 -16 -214 -30 -216 -31 -1 -1 0 -9 3 -16 5 -13 36 -11 213 13
114 15 214 28 222 28 45 1 44 13 -13 171 -30 85 -64 186 -76 225 l-21 71 -53
7 c-28 3 -59 5 -67 4 -8 0 -60 -4 -115 -9z"/>
<path d="M1465 4923 c-146 -9 -433 -37 -647 -63 -364 -43 -812 -101 -817 -106
-12 -12 20 -10 184 12 789 103 1076 133 1342 141 l202 6 -8 -30 c-5 -16 -14
-79 -20 -139 -6 -60 -16 -149 -21 -199 -19 -178 -40 -497 -42 -640 -2 -121 -5
-146 -18 -150 -50 -15 -124 -26 -232 -36 -67 -5 -152 -16 -188 -24 -109 -23
-626 -89 -1032 -132 -148 -15 -168 -19 -168 -35 0 -12 8 -18 23 -18 71 0 937
105 1107 135 47 8 157 24 245 35 88 11 182 25 209 31 38 9 50 9 56 -1 5 -7 13
-59 20 -114 22 -199 59 -367 60 -276 0 20 5 41 11 47 8 8 8 13 0 17 -6 4 -11
29 -11 55 0 27 -6 66 -13 87 -7 22 -22 76 -32 121 -16 73 -17 85 -3 100 10 13
15 48 17 123 4 178 41 829 54 948 l13 112 -121 -2 c-66 -1 -142 -3 -170 -5z"/>
<path d="M10380 4839 c-74 -24 -91 -35 -66 -45 15 -6 63 4 111 23 10 3 15 -9
17 -49 3 -45 6 -53 23 -53 18 0 20 7 20 70 0 83 -4 86 -105 54z"/>
<path d="M1383 4833 c9 -2 25 -2 35 0 9 3 1 5 -18 5 -19 0 -27 -2 -17 -5z"/>
<path d="M1198 4813 c7 -3 16 -2 19 1 4 3 -2 6 -13 5 -11 0 -14 -3 -6 -6z"/>
<path d="M1103 4803 c9 -2 25 -2 35 0 9 3 1 5 -18 5 -19 0 -27 -2 -17 -5z"/>
<path d="M893 4783 c9 -2 23 -2 30 0 6 3 -1 5 -18 5 -16 0 -22 -2 -12 -5z"/>
<path d="M813 4773 c9 -2 23 -2 30 0 6 3 -1 5 -18 5 -16 0 -22 -2 -12 -5z"/>
<path d="M10305 4694 c-47 -49 -85 -94 -85 -100 0 -7 7 -15 16 -18 15 -6 77
54 158 150 23 28 24 33 10 45 -13 11 -27 0 -99 -77z"/>
<path d="M593 4753 c9 -2 25 -2 35 0 9 3 1 5 -18 5 -19 0 -27 -2 -17 -5z"/>
<path d="M518 4743 c7 -3 16 -2 19 1 4 3 -2 6 -13 5 -11 0 -14 -3 -6 -6z"/>
<path d="M9377 4743 c-9 -15 91 -133 113 -133 28 0 25 14 -10 53 -16 19 -30
39 -30 43 0 5 23 7 50 6 56 -4 88 4 74 18 -13 13 -190 25 -197 13z"/>
<path d="M323 4723 c9 -2 23 -2 30 0 6 3 -1 5 -18 5 -16 0 -22 -2 -12 -5z"/>
<path d="M148 4703 c7 -3 16 -2 19 1 4 3 -2 6 -13 5 -11 0 -14 -3 -6 -6z"/>
<path d="M73 4693 c9 -2 23 -2 30 0 6 3 -1 5 -18 5 -16 0 -22 -2 -12 -5z"/>
<path d="M9505 4680 c-4 -6 -5 -13 -3 -16 12 -11 280 -134 293 -134 39 0 0 28
-116 86 -145 71 -165 79 -174 64z"/>
<path d="M7771 4626 c-12 -14 -10 -26 12 -84 20 -51 27 -89 29 -157 3 -101 9
-95 -97 -112 -41 -7 -50 -12 -55 -33 -4 -14 -4 -33 -2 -44 6 -22 59 -46 103
-46 l31 0 -7 -57 c-4 -32 -9 -66 -11 -78 -10 -46 -7 -203 4 -236 7 -20 26 -49
42 -64 26 -24 41 -30 94 -33 84 -5 147 16 229 78 78 59 113 102 162 199 48 94
51 131 11 131 -18 0 -39 -20 -90 -90 -117 -157 -247 -230 -302 -169 -23 26
-23 106 0 249 9 52 16 98 16 103 0 4 7 7 15 7 32 0 332 115 355 136 20 20 23
28 14 51 -18 52 -49 52 -207 0 -79 -26 -147 -47 -153 -47 -5 0 -15 47 -22 105
-12 112 -28 156 -66 180 -37 25 -89 30 -105 11z"/>
<path d="M1563 4560 c0 -36 2 -50 4 -32 2 17 2 47 0 65 -2 17 -4 3 -4 -33z"/>
<path d="M1925 4610 c-3 -5 -3 -10 2 -11 4 0 17 -2 27 -4 26 -5 42 5 25 16
-19 12 -46 11 -54 -1z"/>
<path d="M5775 4550 c-14 -15 -23 -56 -36 -158 -9 -75 -24 -177 -34 -227 l-16
-90 -62 -1 c-99 -1 -199 -53 -314 -165 -175 -170 -215 -438 -80 -527 34 -23
51 -27 111 -27 60 0 81 5 136 32 36 18 92 53 125 78 33 25 63 45 66 45 4 0 10
-15 13 -34 9 -46 28 -60 73 -53 68 11 68 12 65 255 -3 194 0 242 27 454 17
130 34 275 37 321 6 80 6 85 -17 100 -32 23 -72 21 -94 -3z m-97 -640 c4 -56
-15 -194 -33 -238 -35 -81 -187 -202 -256 -202 -51 0 -67 8 -84 41 -43 82 3
219 106 321 67 65 187 130 234 126 28 -3 30 -6 33 -48z"/>
<path d="M10093 4545 c-129 -17 -406 -64 -412 -71 -3 -2 1 -10 7 -16 9 -9 34
-7 104 5 189 34 376 58 495 64 122 6 122 6 132 -18 37 -88 161 -410 161 -417
0 -9 -80 -22 -450 -72 -124 -17 -233 -32 -242 -34 -14 -3 -28 28 -78 184 -33
103 -63 201 -66 218 -6 32 -31 49 -46 34 -12 -12 -3 -46 73 -284 l60 -188 31
0 c34 0 742 97 770 106 14 4 11 17 -24 102 -23 53 -67 165 -98 247 l-56 150
-130 2 c-71 0 -175 -5 -231 -12z"/>
<path d="M270 4449 c-19 -17 -88 -62 -152 -101 -65 -39 -118 -77 -118 -85 0
-17 -9 -22 140 78 63 43 128 91 144 108 38 39 31 39 -14 0z"/>
<path d="M1553 4420 c0 -30 2 -43 4 -27 2 15 2 39 0 55 -2 15 -4 2 -4 -28z"/>
<path d="M190 4289 c-112 -79 -194 -148 -185 -157 2 -3 21 10 42 27 41 34 212
165 253 193 14 9 21 17 15 17 -5 0 -62 -36 -125 -80z"/>
<path d="M460 4329 c-19 -17 -78 -59 -130 -93 -52 -35 -106 -77 -120 -92 -36
-40 177 106 256 175 46 41 41 49 -6 10z"/>
<path d="M1535 4230 c-4 -56 -5 -103 -2 -106 2 -3 8 41 12 96 3 56 5 104 2
106 -3 3 -8 -40 -12 -96z"/>
<path d="M7180 4244 c-92 -29 -193 -129 -261 -259 -18 -33 -44 -72 -60 -87
-36 -34 -47 -73 -25 -97 11 -12 16 -37 16 -83 0 -113 61 -171 183 -170 126 0
251 41 374 124 63 43 99 95 91 134 -6 34 -42 26 -117 -27 -120 -84 -184 -112
-271 -117 -66 -3 -78 -1 -97 17 -18 17 -23 33 -23 70 0 27 6 53 13 58 6 6 37
16 67 22 84 19 206 70 271 114 77 50 109 104 109 178 0 49 -4 59 -32 86 -18
18 -46 37 -61 42 -39 15 -123 13 -177 -5z m109 -113 c19 -13 17 -58 -5 -82
-28 -31 -97 -69 -165 -90 -34 -11 -65 -19 -70 -19 -15 0 29 77 69 122 62 69
128 96 171 69z"/>
<path d="M3933 4230 c-40 -10 -117 -37 -172 -59 -54 -22 -123 -43 -153 -47
-29 -3 -63 -12 -75 -20 -31 -20 -78 -94 -82 -129 -1 -16 -20 -84 -42 -150 -53
-161 -89 -343 -97 -497 -8 -143 0 -192 33 -214 19 -12 31 -13 64 -4 22 6 43
14 45 19 3 5 27 -2 52 -15 55 -28 94 -25 194 14 150 59 305 178 347 267 24 53
30 125 14 168 -26 68 -130 113 -288 125 l-88 7 125 64 c233 119 359 224 393
331 23 70 21 94 -7 127 -23 26 -30 28 -108 30 -57 2 -105 -3 -155 -17z m102
-126 c25 -26 -6 -93 -65 -141 -61 -50 -436 -250 -447 -239 -7 7 29 110 72 202
l33 72 84 40 c158 76 286 102 323 66z m-195 -544 c60 -17 80 -37 80 -78 0 -52
-50 -109 -141 -163 -99 -59 -187 -89 -261 -89 l-61 0 6 148 c4 81 9 160 13
176 l7 29 162 -7 c90 -4 178 -11 195 -16z"/>
<path d="M6410 4186 c-65 -17 -110 -48 -176 -119 -102 -110 -158 -213 -178
-332 -14 -79 -8 -116 26 -153 79 -84 187 -66 326 56 72 63 69 69 30 -78 -30
-114 -30 -114 -145 -129 -289 -37 -705 -98 -983 -145 -113 -19 -272 -47 -355
-61 -82 -14 -181 -32 -220 -40 -38 -8 -230 -47 -425 -86 -195 -39 -506 -104
-690 -146 -184 -41 -353 -79 -375 -84 -85 -17 -211 -50 -225 -59 -24 -15 1
-31 61 -36 42 -4 98 5 254 41 265 63 352 82 460 105 50 10 141 30 203 44 177
40 622 130 917 185 614 114 1404 236 1421 218 9 -9 -24 -46 -56 -62 -14 -7
-53 -23 -85 -34 -70 -24 -95 -50 -95 -97 0 -44 16 -50 88 -34 110 24 234 113
299 216 25 39 29 42 87 48 34 3 131 13 216 21 573 57 1255 60 1515 5 28 -5 75
-15 105 -20 30 -6 98 -25 150 -42 94 -31 178 -40 228 -24 39 13 19 30 -74 62
-227 78 -607 124 -1029 124 -235 0 -726 -24 -900 -44 -250 -29 -238 -29 -230
-9 45 118 79 310 91 520 6 106 5 126 -10 148 -34 52 -126 68 -226 41z m89
-115 c26 -62 -47 -226 -144 -322 -127 -125 -196 -130 -174 -13 19 99 144 276
238 335 58 36 66 36 80 0z"/>
<path d="M2027 4142 c-15 -9 -39 -40 -52 -68 -29 -61 -47 -78 -75 -69 -11 4
-20 2 -20 -4 0 -6 8 -12 18 -13 9 0 24 -2 32 -2 8 -1 20 5 27 14 6 8 14 12 18
9 3 -4 17 3 31 16 34 32 91 58 131 59 37 1 43 18 17 54 -19 28 -85 30 -127 4z"/>
<path d="M1516 4038 c-4 -40 -9 -91 -11 -113 -4 -34 -4 -36 4 -13 10 31 26
198 19 198 -3 0 -8 -33 -12 -72z"/>
<path d="M4832 4042 c-13 -13 -24 -59 -40 -167 -12 -83 -32 -181 -43 -220 -43
-144 -139 -284 -205 -301 -36 -9 -73 5 -98 39 -31 42 -27 155 12 343 39 186
40 201 6 214 -40 15 -79 12 -98 -9 -34 -38 -85 -298 -87 -445 -1 -68 3 -86 28
-135 64 -127 235 -180 331 -104 34 27 91 104 136 184 l19 34 22 -70 c33 -107
39 -115 85 -115 74 0 84 40 50 190 -23 102 -25 211 -5 344 28 188 17 236 -56
236 -24 0 -46 -7 -57 -18z"/>
<path d="M1498 3843 c6 -2 18 -2 25 0 6 3 1 5 -13 5 -14 0 -19 -2 -12 -5z"/>
<path d="M1358 3823 c6 -2 18 -2 25 0 6 3 1 5 -13 5 -14 0 -19 -2 -12 -5z"/>
<path d="M1303 3813 c9 -2 23 -2 30 0 6 3 -1 5 -18 5 -16 0 -22 -2 -12 -5z"/>
<path d="M1148 3793 c6 -2 18 -2 25 0 6 3 1 5 -13 5 -14 0 -19 -2 -12 -5z"/>
<path d="M1088 3783 c6 -2 18 -2 25 0 6 3 1 5 -13 5 -14 0 -19 -2 -12 -5z"/>
<path d="M933 3763 c9 -2 23 -2 30 0 6 3 -1 5 -18 5 -16 0 -22 -2 -12 -5z"/>
<path d="M868 3753 c7 -3 16 -2 19 1 4 3 -2 6 -13 5 -11 0 -14 -3 -6 -6z"/>
<path d="M713 3733 c9 -2 23 -2 30 0 6 3 -1 5 -18 5 -16 0 -22 -2 -12 -5z"/>
<path d="M558 3713 c6 -2 18 -2 25 0 6 3 1 5 -13 5 -14 0 -19 -2 -12 -5z"/>
<path d="M488 3703 c6 -2 18 -2 25 0 6 3 1 5 -13 5 -14 0 -19 -2 -12 -5z"/>
<path d="M328 3683 c6 -2 18 -2 25 0 6 3 1 5 -13 5 -14 0 -19 -2 -12 -5z"/>
<path d="M268 3673 c6 -2 18 -2 25 0 6 3 1 5 -13 5 -14 0 -19 -2 -12 -5z"/>
<path d="M108 3653 c6 -2 18 -2 25 0 6 3 1 5 -13 5 -14 0 -19 -2 -12 -5z"/>
<path d="M2012 3555 c-18 -8 -40 -29 -50 -46 -28 -53 -55 -78 -97 -93 l-40
-15 42 0 c23 -1 45 4 48 10 4 6 13 8 20 5 7 -2 24 4 37 16 38 33 111 65 146
64 39 -1 42 15 7 49 -27 28 -64 31 -113 10z"/>
<path d="M1513 3543 c-18 -6 -16 -23 1 -23 17 0 30 16 19 23 -5 2 -14 2 -20 0z"/>
<path d="M1305 3519 c-10 -15 1 -23 20 -15 9 3 13 10 10 16 -8 13 -22 13 -30
-1z"/>
<path d="M927 3412 c-25 -72 -49 -242 -34 -242 11 0 57 158 67 230 12 93 12
90 3 90 -5 0 -20 -35 -36 -78z"/>
<path d="M1087 3484 c-4 -4 -4 -10 -1 -15 6 -10 34 0 34 12 0 10 -24 12 -33 3z"/>
<path d="M722 3460 c-42 -10 -57 -24 -48 -46 5 -14 15 -16 62 -10 68 8 96 22
92 44 -4 20 -53 25 -106 12z"/>
<path d="M401 3430 c-74 -18 -55 -67 22 -56 54 8 83 27 74 50 -7 17 -39 19
-96 6z"/>
<path d="M66 3400 c-41 -8 -58 -24 -49 -48 5 -11 18 -13 61 -9 64 7 93 27 72
51 -13 17 -24 18 -84 6z"/>
<path d="M1506 3373 c-11 -11 -6 -23 9 -23 8 0 15 4 15 9 0 13 -16 22 -24 14z"/>
<path d="M1290 3340 c0 -5 7 -10 15 -10 8 0 15 5 15 10 0 6 -7 10 -15 10 -8 0
-15 -4 -15 -10z"/>
<path d="M1051 3311 c-10 -7 -10 -10 -1 -16 6 -4 16 -3 22 3 13 13 -4 23 -21
13z"/>
<path d="M652 3270 c-28 -12 -40 -39 -21 -51 18 -12 100 0 118 16 7 8 11 21 8
29 -7 18 -66 21 -105 6z"/>
<path d="M333 3240 c-25 -10 -31 -45 -9 -53 44 -17 139 24 121 52 -8 13 -81
13 -112 1z"/>
<path d="M1505 3219 c-10 -15 1 -23 20 -15 9 3 13 10 10 16 -8 13 -22 13 -30
-1z"/>
<path d="M0 3186 c0 -34 0 -34 36 -26 44 10 59 23 51 44 -4 11 -19 16 -47 16
-39 0 -40 -1 -40 -34z"/>
<path d="M1275 3201 c-7 -12 12 -24 25 -16 11 7 4 25 -10 25 -5 0 -11 -4 -15
-9z"/>
<path d="M1015 3150 c-3 -5 3 -10 14 -10 12 0 21 5 21 10 0 6 -6 10 -14 10 -8
0 -18 -4 -21 -10z"/>
<path d="M598 3099 c-21 -11 -24 -49 -5 -50 34 -3 94 4 109 12 10 5 18 19 18
29 0 17 -7 20 -52 20 -29 0 -61 -5 -70 -11z"/>
<path d="M1620 3069 c-25 -4 -124 -15 -220 -24 -188 -18 -613 -63 -1097 -117
-219 -24 -303 -36 -303 -45 0 -17 5 -17 268 12 125 14 268 30 317 35 446 47
690 72 863 89 229 23 252 28 252 47 0 15 -12 16 -80 3z"/>
<path d="M265 3046 c-32 -23 -12 -46 40 -46 56 0 85 14 85 40 0 17 -7 20 -53
20 -29 0 -62 -6 -72 -14z"/>
<path d="M18 3023 c-12 -3 -18 -14 -18 -35 l0 -30 63 7 c65 7 111 28 104 48
-4 12 -115 20 -149 10z"/>
<path d="M1580 2999 c-156 -24 -956 -117 -1462 -170 -65 -7 -118 -16 -118 -22
0 -5 22 -7 53 -3 28 3 180 19 337 36 728 78 1290 147 1305 161 11 11 -37 10
-115 -2z"/>
<path d="M2006 2929 c-37 -10 -75 -46 -92 -86 -11 -24 -26 -36 -66 -52 -38
-14 -46 -20 -28 -20 14 0 36 6 50 14 33 19 40 18 40 -2 0 -11 3 -14 8 -7 12
18 113 84 138 90 14 4 33 4 44 1 23 -6 26 10 6 36 -18 24 -64 36 -100 26z"/>
<path d="M8385 2559 c20 -18 40 -40 46 -50 11 -22 159 -564 159 -585 0 -9 -10
-14 -29 -14 -16 0 -82 -7 -148 -15 -420 -52 -650 -76 -687 -71 -58 9 -125 46
-158 87 -24 30 -36 68 -77 260 -27 123 -54 257 -61 297 -11 59 -17 72 -32 72
-29 0 -30 -19 -8 -105 12 -44 41 -172 66 -285 24 -112 53 -218 62 -234 26 -45
96 -94 160 -113 61 -17 100 -15 407 22 358 43 469 55 495 55 26 0 29 -4 44
-66 9 -37 15 -68 13 -70 -4 -4 -83 -15 -287 -39 -74 -9 -189 -22 -255 -30 -66
-8 -217 -26 -335 -40 -118 -14 -236 -32 -263 -41 -64 -21 -131 -89 -146 -148
-11 -46 5 -141 123 -705 9 -41 13 -77 11 -80 -13 -12 -706 -92 -780 -89 -102
4 -196 46 -248 111 -48 61 -55 84 -83 256 -13 86 -29 187 -35 224 -6 38 -9 71
-6 73 2 3 147 22 322 43 289 35 322 41 373 68 64 32 110 90 121 149 5 29 -11
133 -66 409 -40 204 -80 416 -89 473 -16 96 -18 102 -40 102 -28 0 -28 -3 -9
-90 13 -58 75 -366 141 -698 30 -153 30 -197 3 -242 -24 -39 -39 -53 -89 -79
-44 -23 -50 -24 -360 -61 -140 -16 -269 -32 -287 -35 -31 -6 -32 -5 -38 42 -4
26 -16 102 -26 168 -123 776 -124 785 -75 850 l28 36 -33 -3 c-27 -2 -37 -10
-51 -38 -27 -53 -23 -111 32 -463 81 -522 130 -835 146 -947 24 -159 38 -200
85 -254 47 -53 92 -84 159 -109 86 -31 132 -30 470 12 179 22 600 75 935 116
336 42 628 80 650 86 126 34 225 149 225 263 0 33 -63 283 -191 755 -211 779
-219 801 -285 801 l-35 0 36 -31z m274 -881 c41 -129 161 -604 161 -637 0 -87
-50 -162 -140 -210 -61 -33 -68 -34 -573 -97 -282 -34 -526 -65 -544 -68 -28
-4 -32 -1 -37 22 -3 15 -37 180 -75 368 -62 299 -69 346 -59 380 14 51 81 118
133 133 30 9 1017 134 1107 140 10 1 20 -11 27 -31z"/>
<path d="M7960 1350 c-23 -45 -39 -85 -36 -88 8 -7 6 -9 49 82 21 43 36 81 33
83 -3 3 -23 -32 -46 -77z"/>
<path d="M7856 1394 c-9 -24 12 -54 39 -54 29 0 39 14 31 46 -5 18 -13 24 -35
24 -17 0 -31 -6 -35 -16z m52 -22 c2 -14 -2 -22 -11 -22 -15 0 -29 34 -19 45
11 11 27 -2 30 -23z"/>
<path d="M7743 1393 c-19 -4 -23 -11 -23 -44 0 -42 5 -45 45 -27 21 9 29 9 42
-4 9 -9 13 -24 10 -32 -7 -18 -52 -22 -62 -6 -9 15 -25 12 -25 -4 0 -26 85
-37 108 -14 35 35 -11 97 -63 84 -18 -5 -25 -2 -25 8 0 9 14 18 35 22 19 3 35
10 35 15 0 9 -36 10 -77 2z"/>
<path d="M7596 1328 c-19 -29 -32 -56 -29 -60 2 -5 24 -8 49 -8 33 0 44 -4 44
-16 0 -9 6 -14 13 -11 6 2 11 10 9 17 -2 7 3 17 10 22 10 7 10 10 -4 18 -9 6
-19 28 -23 50 -9 54 -28 51 -69 -12z m47 -40 c-5 -10 -43 -10 -43 0 0 4 8 19
17 32 l17 24 7 -24 c3 -14 4 -28 2 -32z"/>
<path d="M8017 1352 c-14 -3 -17 -11 -15 -35 3 -28 7 -32 34 -35 35 -3 50 17
34 48 -11 21 -28 28 -53 22z m33 -38 c0 -31 -23 -28 -28 4 -2 15 2 22 12 22
11 0 16 -9 16 -26z"/>
<path d="M8391 1039 c-99 -118 -118 -149 -92 -149 8 0 231 265 231 275 0 3 -6
5 -14 5 -8 0 -64 -59 -125 -131z"/>
<path d="M8594 1038 c-76 -82 -101 -124 -70 -116 22 5 119 129 109 139 -5 5
-21 -4 -39 -23z"/>
<path d="M7688 2553 c7 -3 16 -2 19 1 4 3 -2 6 -13 5 -11 0 -14 -3 -6 -6z"/>
<path d="M8136 2521 c-5 -8 148 -101 168 -101 23 0 -5 25 -71 62 -96 54 -90
51 -97 39z"/>
<path d="M7986 2482 c-8 -13 3 -20 115 -80 101 -55 109 -58 109 -43 0 5 -30
26 -67 47 -38 20 -87 48 -110 61 -23 13 -44 20 -47 15z"/>
<path d="M6531 2237 c-66 -70 -109 -123 -101 -125 12 -4 250 225 250 240 0 29
-51 -10 -149 -115z"/>
<path d="M1960 2247 c-32 -15 -57 -44 -77 -87 -8 -19 -20 -38 -27 -42 -6 -5
-7 -8 -1 -8 11 0 54 31 86 62 9 9 20 14 23 11 3 -4 6 -1 6 5 0 7 9 12 20 12
11 0 20 4 20 8 0 4 12 9 27 10 36 3 40 9 17 27 -23 17 -60 18 -94 2z"/>
<path d="M6682 2131 c-51 -55 -92 -102 -92 -105 0 -22 37 8 117 93 81 87 97
111 73 111 -4 0 -48 -45 -98 -99z"/>
<path d="M8215 2150 c-36 -71 -48 -103 -34 -95 13 9 72 136 65 142 -3 3 -16
-18 -31 -47z"/>
<path d="M8110 2166 c0 -30 23 -50 50 -41 39 12 18 65 -27 65 -18 0 -23 -6
-23 -24z m48 -15 c3 -16 -1 -22 -10 -19 -7 3 -15 15 -16 27 -3 16 1 22 10 19
7 -3 15 -15 16 -27z"/>
<path d="M7987 2162 c-21 -23 -21 -45 -2 -82 18 -35 56 -47 92 -31 23 11 25
16 20 54 -9 67 -72 101 -110 59z m71 -27 c24 -52 3 -95 -32 -66 -15 13 -29 68
-20 82 11 18 41 8 52 -16z"/>
<path d="M7843 2154 c-15 -7 -18 -34 -4 -34 6 0 13 5 16 10 9 15 45 12 45 -3
0 -8 -10 -19 -22 -25 -23 -11 -23 -11 3 -11 29 -1 54 -24 44 -41 -8 -13 -31
-13 -55 2 -26 16 -40 0 -16 -18 26 -18 56 -18 84 2 25 18 28 36 8 54 -8 6 -16
24 -18 38 -3 23 -8 27 -38 29 -19 1 -41 0 -47 -3z"/>
<path d="M8251 2126 c-9 -11 -10 -20 -1 -35 13 -25 58 -28 67 -5 14 37 -41 71
-66 40z m47 -24 c2 -14 -2 -22 -11 -22 -15 0 -29 34 -19 45 11 11 27 -2 30
-23z"/>
<path d="M3613 2043 c-12 -2 -25 -14 -29 -26 -3 -12 -34 -86 -67 -164 l-60
-143 -67 0 c-235 0 -472 -115 -584 -284 -86 -130 -100 -284 -36 -404 78 -148
244 -232 456 -232 270 0 529 159 615 378 17 43 23 78 23 142 0 75 -4 93 -32
152 -49 102 -119 158 -279 224 -21 9 -19 13 57 187 l78 177 -27 -1 c-14 -1
-36 -4 -48 -6z m-169 -382 c3 -4 30 -11 59 -14 144 -15 280 -143 307 -289 29
-154 -78 -340 -250 -436 -287 -162 -626 -99 -751 139 -19 36 -23 59 -23 134
-1 81 3 96 31 155 18 36 51 86 73 112 78 90 236 176 363 197 70 12 185 13 191
2z"/>
<path d="M3467 1445 c-53 -7 -92 -17 -97 -25 -9 -14 -30 -123 -30 -152 0 -23
23 -28 51 -13 95 55 153 44 153 -30 0 -72 -89 -103 -139 -49 -30 33 -70 30
-70 -5 0 -39 46 -66 113 -65 104 1 172 55 172 137 0 69 -78 111 -160 87 -19
-5 -36 -10 -37 -10 -6 0 -2 46 5 56 4 6 43 16 86 22 79 11 104 25 84 49 -12
15 -10 15 -131 -2z"/>
<path d="M3138 1393 c-80 -87 -189 -228 -186 -242 3 -14 18 -16 101 -13 l97 3
0 -30 c0 -35 12 -45 45 -37 19 5 24 14 27 43 2 30 8 38 28 43 36 8 34 44 -2
48 l-28 3 0 93 c0 94 -8 116 -40 116 -9 0 -28 -12 -42 -27z m10 -135 l-3 -63
-55 -6 c-30 -3 -57 -5 -59 -3 -5 4 103 133 112 133 4 1 7 -27 5 -61z"/>
<path d="M6911 1617 c-42 -76 -53 -108 -25 -72 23 29 76 136 71 142 -3 2 -23
-29 -46 -70z"/>
<path d="M6823 1673 c-18 -7 -16 -48 2 -63 21 -17 55 -3 55 24 0 36 -24 53
-57 39z m37 -39 c0 -26 -17 -33 -26 -9 -8 20 3 48 16 40 5 -3 10 -17 10 -31z"/>
<path d="M6687 1653 c-4 -3 -7 -21 -7 -40 0 -33 0 -33 40 -27 32 5 41 3 46
-11 4 -10 0 -23 -10 -33 -13 -14 -20 -14 -36 -4 -25 15 -43 15 -38 0 14 -40
118 -18 118 25 0 33 -18 47 -62 47 -29 0 -36 3 -32 15 4 8 19 15 34 15 16 0
32 5 35 10 7 11 -77 14 -88 3z"/>
<path d="M6532 1628 c-13 -13 -16 -38 -4 -38 4 0 15 9 25 20 20 24 30 25 47 6
9 -12 4 -23 -29 -59 -23 -24 -41 -47 -41 -51 0 -8 93 -8 114 0 28 11 5 25 -30
18 -42 -8 -43 3 -4 39 47 45 34 77 -30 77 -20 0 -41 -5 -48 -12z"/>
<path d="M6954 1606 c-12 -31 0 -51 31 -51 24 0 31 5 33 24 6 36 -51 60 -64
27z m44 -24 c2 -15 -2 -22 -12 -22 -11 0 -16 9 -16 26 0 31 23 28 28 -4z"/>
</g>
</svg>
